<?xml version="1.0" encoding="UTF-8" standalone="no"?>
<!-- Created with Inkscape (http://www.inkscape.org/) -->

<svg
   width="263.35269mm"
   height="217.10257mm"
   viewBox="0 0 263.35269 217.10257"
   version="1.1"
   id="svg1"
   xml:space="preserve"
   inkscape:version="1.3 (0e150ed6c4, 2023-07-21)"
   sodipodi:docname="SNS_Logo.svg"
   xmlns:inkscape="http://www.inkscape.org/namespaces/inkscape"
   xmlns:sodipodi="http://sodipodi.sourceforge.net/DTD/sodipodi-0.dtd"
   xmlns="http://www.w3.org/2000/svg"
   xmlns:svg="http://www.w3.org/2000/svg"><sodipodi:namedview
     id="namedview1"
     pagecolor="#505050"
     bordercolor="#ffffff"
     borderopacity="1"
     inkscape:showpageshadow="0"
     inkscape:pageopacity="0"
     inkscape:pagecheckerboard="1"
     inkscape:deskcolor="#505050"
     inkscape:document-units="mm"
     inkscape:zoom="0.36213173"
     inkscape:cx="-291.33045"
     inkscape:cy="584.04161"
     inkscape:window-width="1920"
     inkscape:window-height="1009"
     inkscape:window-x="-8"
     inkscape:window-y="-8"
     inkscape:window-maximized="1"
     inkscape:current-layer="layer1" /><defs
     id="defs1" /><g
     inkscape:label="Layer 1"
     inkscape:groupmode="layer"
     id="layer1"
     transform="translate(25.920373,-34.779777)"><path
       style="fill:#f44a4a;stroke:none"
       d="m 24.183225,35.051405 c -8.17575,0.961004 -15.9836995,2.051086 -23.53750954,5.519091 -4.83910996,2.221667 -9.33762996,5.064549 -13.15363046,8.802096 -23.99068,23.497485 -11.41503,59.951118 3.7505105,84.514158 2.57932,4.17762 5.45137,8.15462 8.27087996,12.17083 9.31691004,13.27132 21.00766954,25.07389 32.89265954,36.02825 26.40468,24.3371 57.24806,43.69764 90.477095,57.22472 23.42708,9.53685 49.34141,15.4019 74.6125,11.18191 5.90488,-0.98604 11.69605,-3.16953 16.93333,-6.05622 4.15989,-2.29285 7.98244,-5.19264 11.1909,-8.70879 23.79857,-26.08079 7.0263,-64.93252 -9.95985,-89.66987 C 200.60636,124.13447 181.16531,105.7546 160.45407,89.310367 138.84253,72.151337 114.66602,57.947133 89.016555,47.738131 73.534935,41.576136 57.296465,36.662337 40.597805,35.438267 c -5.38899,-0.395034 -11.00554,-1.02266 -16.41458,-0.386862 m 4.50833,13.979638 c 4.24267,-0.500599 8.99336,0.249952 13.22917,0.673489 13.80949,1.380827 27.33639,5.631084 40.21666,10.611934 46.642965,18.037001 89.315655,50.183854 119.228085,90.239034 2.75847,3.69382 5.43408,7.64674 7.73233,11.64167 10.66435,18.53729 22.91388,46.62366 5.07709,64.81904 -2.30869,2.35511 -5.00709,4.12964 -7.94791,5.62464 -4.23621,2.1535 -8.8118,3.53312 -13.49375,4.31826 -21.16501,3.54927 -43.05906,-2.80186 -62.70625,-10.14297 -25.937,-9.69128 -50.035845,-24.34388 -71.702095,-41.46425 -15.86505,-12.53635 -31.3385,-26.56288 -43.64563,-42.73389 -3.07423,-4.0394 -6.0760395,-8.16241 -8.8233295,-12.43542 -12.59481,-19.5894 -28.2918205,-51.266793 -7.85604,-71.169039 2.51664996,-2.450949 5.81714,-4.287577 8.99583,-5.743044 7.0486595,-3.227452 14.2013995,-3.355173 21.6958395,-4.239454 m -15.61042,62.101537 v 19.84375 h 23.28334 c 5.29628,0 10.57517,0.364 15.61041,-1.60545 12.99474,-5.08267 16.91131,-22.21727 9.06321,-33.054963 -5.41149,-7.4729 -13.43077,-8.81845 -21.76321,-11.07248 -1.79349,-0.48516 -7.31009,-1.11318 -6.59274,-4.00754 0.62189,-2.5092 4.44436,-1.85331 6.32816,-1.85331 h 19.84375 V 59.803415 h -17.72708 c -5.69383,0 -10.80574,-0.124556 -16.13959,2.177096 -11.57767,4.995986 -16.4768595,22.368696 -8.38358,32.483326 5.92078,7.399523 13.53847,8.654083 22.14192,11.112493 1.75731,0.50215 7.2758,1.01992 6.43002,3.96752 -0.72684,2.53312 -5.77559,1.58873 -7.75294,1.58873 h -24.34167 m 57.94375,-5.55625 v 71.4375 h 19.57917 v -25.4 l 0.26458,-12.7 7.32014,10.58334 11.200495,16.40416 4.65043,6.87917 2.80404,3.69682 6.56866,0.27193 h 15.875 c 0.70764,-16.48381 -0.0966,-32.99245 0.02,-49.47708 0.0381,-5.38181 0.40999,-10.74542 0.0288,-16.13959 -0.10824,-1.5318 0.58235,-3.20531 0.13168,-4.7233 -0.39952,-1.34572 -3.07358,-0.83295 -4.14923,-0.83295 h -11.37708 c -0.9611,0 -3.29023,-0.42321 -3.96141,0.42423 -0.54859,0.69266 -0.27193,2.18947 -0.27193,3.01536 v 7.40833 18.78542 c 0,3.14711 0.46635,6.71939 -0.26458,9.78958 l -6.54048,-9.525 -13.212235,-19.05 -5.41313,-7.9375 -2.14259,-2.75077 -6.29366,-0.15965 H 71.024885 M 192.46864,175.9555 v -14.02292 c 0,-1.24495 0.53177,-4.11728 -0.27193,-5.13201 -0.52839,-0.66715 -1.89686,-0.42419 -2.63848,-0.42424 h -7.14375 c -9.86826,0 -21.68191,-1.8425 -29.35833,5.83125 -11.44794,11.44399 -7.58226,31.15513 7.92708,36.74279 4.34651,1.56594 9.01793,2.56867 13.49375,3.69456 1.53127,0.3852 4.04044,0.75237 4.35441,2.67952 0.52995,3.25293 -5.20734,2.38105 -7.00024,2.38105 h -19.31458 c -1.27312,0 -5.5495,-0.68888 -6.00132,0.83295 -1.19661,4.03056 -0.0841,10.03162 -0.0841,14.2483 0,1.0418 -0.48395,3.77128 0.42423,4.49057 0.81886,0.64856 2.82187,0.27193 3.8091,0.27193 h 9.78959 c 13.1926,0 31.02997,2.13679 36.59394,-13.49375 3.99078,-11.21107 -0.47398,-25.17913 -12.51687,-29.23216 -4.61754,-1.55404 -9.55714,-2.62316 -14.28749,-3.80726 -1.42167,-0.35589 -4.24414,-0.92348 -4.05817,-2.94372 0.24892,-2.70395 4.37787,-2.11686 6.17484,-2.11686 z"
       id="path384" /></g></svg>
